<svg width="47" height="45" viewBox="0 0 47 45" fill="none" xmlns="http://www.w3.org/2000/svg">
<path fill-rule="evenodd" clip-rule="evenodd" d="M38.8026 6.07466C33.1533 3.43481 26.6971 5.82594 23.6007 11.413C20.508 5.82594 14.0518 3.43481 8.4007 6.07466C2.21439 8.96625 -0.662941 16.7978 1.98424 23.5678C6.76344 36.5572 23.2809 44.7513 23.5989 44.9939V45L23.6007 44.998L23.6026 45L23.6044 44.9939C31.7383 40.3823 43.5265 30.2791 46.1469 23.5678C48.7923 16.7978 44.9908 8.96625 38.8026 6.07466Z" fill="url(#paint0_linear_4751_2392)"/>
<path d="M22.4802 6.39352C18.7792 1.71692 14.153 -0.153973 8.6012 1.71698C2.21148 3.87032 -1.57632 11.0697 3.04986 21.3583C6.75081 29.5891 17.5452 37.8823 22.4798 41C25.8725 38.8176 33.9531 32.9564 39.1344 26.9703C45.6111 19.4878 46.5363 11.3815 42.8354 6.39316C40.0596 2.65188 29.882 -2.96004 20.6297 12.0051" stroke="black" stroke-width="2"/>
<defs>
<linearGradient id="paint0_linear_4751_2392" x1="37.7042" y1="34.2174" x2="13.4065" y2="-7.38301" gradientUnits="userSpaceOnUse">
<stop stop-color="#FF8482"/>
<stop offset="1" stop-color="#FF3A5B"/>
</linearGradient>
</defs>
</svg>
